<svg xmlns="http://www.w3.org/2000/svg" xmlns:xlink="http://www.w3.org/1999/xlink" xmlns:xodm="http://www.corel.com/coreldraw/odm/2003" xml:space="preserve" version="1.1" style="shape-rendering:geometricPrecision;text-rendering:geometricPrecision;image-rendering:optimizeQuality;" viewBox="0 0 846.66 1058.325" x="0px" y="0px" fill-rule="evenodd" clip-rule="evenodd"><defs><style type="text/css">
   
    .fil0 {fill:black;fill-rule:nonzero}
   
  </style></defs><g><path class="fil0" d="M199.98 346.97c-3.76,-8.54 0.13,-18.53 8.67,-22.29 8.54,-3.76 18.53,0.13 22.29,8.67 13.17,29.72 29.42,49.8 48.69,60.19 10.67,5.75 22.57,8.63 35.72,8.64 -10.34,-12.21 -19.92,-26.5 -28.76,-42.86 -4.41,-8.21 -1.33,-18.47 6.88,-22.88 8.21,-4.41 18.47,-1.33 22.88,6.88 12.96,23.99 27.44,42.49 43.44,55.47 1.59,0.87 3.03,1.98 4.28,3.31 5.64,4.16 11.46,7.67 17.47,10.51 14.77,6.98 30.97,10.03 48.57,9.13 -17.79,-15.9 -33.95,-36.6 -48.47,-62.08 -4.6,-8.11 -1.76,-18.43 6.35,-23.03 8.11,-4.6 18.43,-1.76 23.03,6.35 24.57,43.11 53.64,69.71 87.12,79.71 31.93,9.53 65.47,3.25 95.77,-8.83 -62.28,-60.87 -115.47,-104.37 -159.51,-130.47 -44.04,-26.09 -77.24,-34.17 -99.62,-24.23 -1.87,0.9 -3.94,1.46 -6.14,1.6 -9.31,0.61 -17.38,-6.44 -17.99,-15.75 -1.3,-19.23 -9.37,-36.67 -21.87,-49.83 -12.5,-13.17 -29.51,-22.13 -48.66,-24.43 -19.19,-2.3 -37.85,2.37 -53.13,12.21 -15.25,9.82 -27.21,24.85 -33.04,43.23 -1.67,5.23 -5.84,9.57 -11.51,11.18 -5.3,1.51 -10.02,3.43 -14.12,5.75l-1.57 0.98 2.37 1.86c3.56,2.6 6.33,3.41 10.61,3.91 9.27,1.06 15.94,9.45 14.88,18.72 -16.18,137.99 26.74,210.99 98.79,245.62 74.9,36 181.94,33.16 288.47,18.45 1.94,-0.24 3.95,-0.18 5.96,0.27 27.11,6.05 54.92,6.75 81.9,2.35 18.7,-3.05 37.03,-8.58 54.48,-16.52 -14.25,-10.52 -29.04,-20.4 -44.32,-29.59 -20.98,-12.63 -42.77,-23.89 -65.17,-33.67 -30.9,7.68 -59.65,7.55 -86.24,-0.39 -5.87,-1.75 -11.6,-3.88 -17.21,-6.38 -38.46,10.91 -73.2,9.06 -104.15,-5.56 -6.61,-3.12 -13.01,-6.82 -19.2,-11.09 -31.59,7.39 -59.7,4.47 -84.29,-8.78 -26.11,-14.08 -47.35,-39.54 -63.65,-76.33zm271.02 227.32c-1.01,0.61 -2.11,1.12 -3.27,1.51 -10.38,3.51 -19.19,10.03 -26.09,18.73 -4.49,5.65 -8.21,12.23 -11.09,19.53 17.66,-1.06 35.27,-2.51 53.07,-3.97 88.43,-7.25 181.41,-14.87 308.13,19.22 9.02,2.41 14.38,11.69 11.97,20.71 -2.41,9.02 -11.69,14.38 -20.71,11.97 -121.04,-32.56 -211.1,-25.18 -296.75,-18.16 -86.44,7.1 -168.61,13.83 -273.78,-18.92l-80.46 80.46c-6.61,6.61 -17.33,6.61 -23.94,0 -6.61,-6.61 -6.61,-17.33 0,-23.94l67.93 -67.93 -121.72 -37.57c-8.91,-2.73 -13.91,-12.19 -11.18,-21.1 2.73,-8.91 12.19,-13.91 21.1,-11.18 73.89,22.8 177.34,60.73 254.97,69.04 4.31,-14.82 11,-28.13 19.79,-39.2l0.78 -0.98c-36.74,-4.63 -70.91,-13.44 -100.91,-27.86 -82.39,-39.6 -132.81,-119.18 -119.35,-265.4 -4.06,-1.8 -7.94,-4.1 -11.41,-6.88 -7.1,-5.43 -13.49,-12.81 -19.11,-22.08 -3.99,-6.59 -2.93,-14.84 2.08,-20.22 5.59,-6.09 13.01,-12.19 20.32,-16.08 4.24,-2.44 8.68,-4.55 13.31,-6.33 9.03,-22.33 24.66,-40.66 44.05,-53.14 21.72,-13.99 48.18,-20.62 75.35,-17.37 27.21,3.27 51.38,16 69.18,34.75 13.26,13.96 23.01,31.27 27.89,50.5 29.91,-4.64 66.74,5.98 110.45,31.89 50.47,29.9 111.69,80.9 183.6,152.92 6.57,6.61 6.55,17.31 -0.06,23.88 -1.56,1.55 -3.35,2.73 -5.26,3.55l-10.02 4.79c12.77,6.48 25.28,13.41 37.49,20.76 23.79,14.32 46.73,30.44 68.59,48.19 7.23,5.88 8.33,16.52 2.45,23.75 -1.27,1.56 -2.76,2.83 -4.39,3.81 -27.45,16.61 -57.66,27.59 -88.85,32.68 -30.09,4.9 -61.14,4.3 -91.53,-2.09 -24.26,3.3 -48.59,5.99 -72.62,7.76zm-76.43 41.3c3.9,-14.59 10.06,-27.79 18.21,-38.95 -7.65,0.02 -15.25,-0.08 -22.77,-0.31 -9.72,3.62 -18.02,9.92 -24.58,18.2 -4.72,5.95 -8.6,12.94 -11.55,20.72 13.75,0.57 27.27,0.63 40.69,0.34zm-186.76 -381.49c-9.35,0 -16.94,-7.59 -16.94,-16.94 0,-9.35 7.59,-16.94 16.94,-16.94l0.21 0c9.35,0 16.94,7.59 16.94,16.94 0,9.35 -7.59,16.94 -16.94,16.94l-0.21 0z"/></g><text x="0" y="861.66" fill="#000000" font-size="5px" font-weight="bold" font-family="'Helvetica Neue', Helvetica, Arial-Unicode, Arial, Sans-serif">Created by Neneng Fadliyah</text><text x="0" y="866.66" fill="#000000" font-size="5px" font-weight="bold" font-family="'Helvetica Neue', Helvetica, Arial-Unicode, Arial, Sans-serif">from the Noun Project</text></svg>