<svg xmlns="http://www.w3.org/2000/svg" viewBox="0 0 35 31.25" fill="none" x="0px" y="0px"><path fill-rule="evenodd" clip-rule="evenodd" d="M29.1469 0.300964V7.83456C30.7394 10.4165 32.035 14.6174 30.93 18.2485C30.3623 20.1141 29.1641 21.8118 27.0871 23.0339C25.0209 24.2495 22.1147 24.9779 18.1469 24.9779C10.3008 24.9779 6.39229 22.4812 4.81771 19.0621C3.28597 15.736 4.06881 11.7374 5.15257 8.8711L5.68742 0.313443L12.6482 2.45524C13.7706 2.12253 15.5074 1.74342 17.2771 1.62899C19.0096 1.51696 20.8816 1.65033 22.2179 2.43296L29.1469 0.300964ZM28.1469 1.65492L22.067 3.52564L21.8695 3.39397C20.8148 2.69085 19.1264 2.51149 17.3416 2.6269C15.583 2.74063 13.8468 3.13187 12.7939 3.45583L12.6469 3.50108L6.60631 1.64244L6.14113 9.08526L6.11389 9.15651C5.04498 11.9521 4.35391 15.6644 5.72602 18.6438C7.06811 21.558 10.493 23.9779 18.1469 23.9779C22.0021 23.9779 24.7157 23.2689 26.5799 22.172C28.4332 21.0816 29.476 19.5917 29.9733 17.9574C30.9806 14.6473 29.7636 10.6756 28.2245 8.24547L28.1469 8.12296V1.65492Z" fill="black"/><path d="M13.6469 11.478C13.6469 12.0303 13.1992 12.478 12.6469 12.478C12.0946 12.478 11.6469 12.0303 11.6469 11.478C11.6469 10.9257 12.0946 10.478 12.6469 10.478C13.1992 10.478 13.6469 10.9257 13.6469 11.478Z" fill="black"/><path d="M23.6469 11.478C23.6469 12.0303 23.1992 12.478 22.6469 12.478C22.0946 12.478 21.6469 12.0303 21.6469 11.478C21.6469 10.9257 22.0946 10.478 22.6469 10.478C23.1992 10.478 23.6469 10.9257 23.6469 11.478Z" fill="black"/><path fill-rule="evenodd" clip-rule="evenodd" d="M7.54211 14.4668L0.542114 12.9668L0.751643 11.989L7.75164 13.489L7.54211 14.4668ZM0.542114 17.489L7.54211 15.989L7.75164 16.9668L0.751643 18.4668L0.542114 17.489Z" fill="black"/><path fill-rule="evenodd" clip-rule="evenodd" d="M27.7516 14.4668L34.7516 12.9668L34.5421 11.989L27.5421 13.489L27.7516 14.4668ZM34.7516 17.489L27.7516 15.989L27.5421 16.9668L34.5421 18.4668L34.7516 17.489Z" fill="black"/><path d="M17.9067 17.0279C17.7912 17.2279 17.5025 17.2279 17.3871 17.0279L15.3086 13.4279C15.1931 13.2279 15.3375 12.9779 15.5684 12.9779L19.7253 12.9779C19.9563 12.9779 20.1006 13.2279 19.9851 13.4279L17.9067 17.0279Z" fill="black"/><path fill-rule="evenodd" clip-rule="evenodd" d="M14.6469 17.978C16.3743 17.978 17.0396 16.8456 17.1618 16.3567L18.132 16.5992C17.9208 17.4437 16.9195 18.978 14.6469 18.978V17.978Z" fill="black"/><path fill-rule="evenodd" clip-rule="evenodd" d="M20.6469 17.978C18.9195 17.978 18.2542 16.8456 18.132 16.3567L17.1618 16.5992C17.3729 17.4437 18.3743 18.978 20.6469 18.978V17.978Z" fill="black"/><text x="0" y="40" fill="#000000" font-size="5px" font-weight="bold" font-family="'Helvetica Neue', Helvetica, Arial-Unicode, Arial, Sans-serif">Created by Teresa</text><text x="0" y="45" fill="#000000" font-size="5px" font-weight="bold" font-family="'Helvetica Neue', Helvetica, Arial-Unicode, Arial, Sans-serif">from the Noun Project</text></svg>