<svg xmlns="http://www.w3.org/2000/svg" data-name="Layer 1" viewBox="0 0 100 125" x="0px" y="0px"><title>Artboard 13</title><ellipse cx="33.77" cy="57.39" rx="5.94" ry="4.12" transform="matrix(0.17, -0.99, 0.99, 0.17, -28.53, 80.89)"/><ellipse cx="66.23" cy="57.39" rx="4.12" ry="5.94" transform="translate(-8.8 12.11) rotate(-9.8)"/><path d="M50,57.17a20.37,20.37,0,0,0-15,6.14,1.44,1.44,0,0,0,2.11,2,16.08,16.08,0,0,1,7-4.29,6.65,6.65,0,0,0,4.49,3.71v3c-.12.16-.25.33-.38.48l-.24.25-.44.47-.29.26-.4.35-.31.22a4.56,4.56,0,0,1-.39.27l-.31.18a3.17,3.17,0,0,1-.41.21l-.29.13-.43.14-.28.08-.47.08-.24,0H43a6.92,6.92,0,0,1-4-2.12,1.44,1.44,0,1,0-2.17,1.89,10.21,10.21,0,0,0,4.75,2.89c.07.83.18,1.63.32,2.4,0,.17.05.33.09.49L42,77c.05.19.09.39.14.58s0,.12,0,.19,0,.14.07.22q.14.51.3,1s0,.09,0,.13c1.23,3.55,3.26,6,5.63,6.76l.13,0c.21.06.41.11.62.15l.2,0a5,5,0,0,0,1.54,0l.2,0c.21,0,.41-.09.62-.15l.13,0c2.37-.79,4.4-3.21,5.63-6.76,0,0,0-.09,0-.13q.16-.48.3-1a1.87,1.87,0,0,0,.07-.22,1.8,1.8,0,0,0,0-.19c0-.19.09-.39.14-.58l.12-.56c0-.16.06-.32.09-.49.14-.77.25-1.58.32-2.41a10.29,10.29,0,0,0,4.75-2.88,1.44,1.44,0,0,0-2.17-1.89,6.94,6.94,0,0,1-4.4,2.12h-.36l-.2,0a4.71,4.71,0,0,1-.52-.09l-.22-.06a4.66,4.66,0,0,1-.49-.16l-.25-.11a4.78,4.78,0,0,1-.45-.23l-.27-.15-.34-.24-.09-.06-.27-.2-.44-.38-.26-.23c-.16-.16-.31-.33-.47-.5l-.21-.23c-.13-.15-.26-.32-.39-.48v-3A6.65,6.65,0,0,0,55.93,61a16.08,16.08,0,0,1,7,4.29,1.41,1.41,0,0,0,1,.46,1.47,1.47,0,0,0,1-.38,1.45,1.45,0,0,0,.08-2A20.37,20.37,0,0,0,50,57.17Zm2.94,20.37.14,0a10.15,10.15,0,0,1,1.23.34l.2.06.16.06a2.83,2.83,0,0,1-.11.31,3.42,3.42,0,0,1-.13.34,12.47,12.47,0,0,1-1,2h0a6.9,6.9,0,0,1-1.67,1.93l0,0a3.39,3.39,0,0,1-.65.39,1.79,1.79,0,0,1-.32.13l-.22.07a2.07,2.07,0,0,1-1.14,0l-.22-.07a1.79,1.79,0,0,1-.32-.13,3.39,3.39,0,0,1-.65-.39l0,0a6.9,6.9,0,0,1-1.67-1.93h0a12.47,12.47,0,0,1-1-2,3.42,3.42,0,0,1-.13-.34,2.83,2.83,0,0,1-.11-.31l.16-.06.2-.06a9.82,9.82,0,0,1,1.24-.34l.13,0A14.56,14.56,0,0,1,52.94,77.54Z"/><path d="M91.08,78.63a17.07,17.07,0,0,0,.14-20.39A45.65,45.65,0,0,0,86.1,39.57c4.47-20.12-2.6-33-3-33.6a1.92,1.92,0,0,0-2.28-.87c-8,2.7-14,8.73-18.09,14.13a39.35,39.35,0,0,0-25.54,0C33.16,13.83,27.12,7.8,19.14,5.1A1.92,1.92,0,0,0,16.86,6c-.36.64-7.43,13.48-3,33.6A45.65,45.65,0,0,0,8.78,58.24a17.09,17.09,0,0,0,.13,20.39,12.1,12.1,0,0,0-3.4,7.7c0,.26,0,.52,0,.78,0,3.91,2.86,7.1,6.39,7.1a5.86,5.86,0,0,0,2.72-.68,5.88,5.88,0,0,0,7.78,0,5.93,5.93,0,0,0,2.73.68A6,6,0,0,0,29.67,92,69.07,69.07,0,0,0,50,95a69.4,69.4,0,0,0,20.33-3,6,6,0,0,0,4.58,2.17,5.93,5.93,0,0,0,2.73-.68,5.88,5.88,0,0,0,7.78,0,5.86,5.86,0,0,0,2.72.68c3.53,0,6.39-3.19,6.39-7.1a6,6,0,0,0,0-.74A12.27,12.27,0,0,0,91.08,78.63ZM80.5,9.33c1.44,3.4,4.45,12.49,2.58,25.3-.65-.92-1.33-1.82-2-2.68a35.38,35.38,0,0,0-1.68-17.24,1.43,1.43,0,0,0-1.78-.79c-4,1.33-7.16,4.44-9.55,7.55-.5-.26-1-.51-1.53-.74C69.9,16.39,74.6,11.79,80.5,9.33Zm-61,0c5.9,2.46,10.6,7.06,14,11.4-.52.23-1,.48-1.53.74-2.39-3.11-5.6-6.22-9.55-7.55a1.43,1.43,0,0,0-1.78.79A35.22,35.22,0,0,0,19,32c-.71.86-1.38,1.75-2,2.66C15.05,21.82,18.07,12.72,19.5,9.33Zm5.59,81.05a2.22,2.22,0,0,1-1.61-.76A1.91,1.91,0,0,0,21.9,89a1.87,1.87,0,0,0-1.43.88,2.4,2.4,0,0,1-2,1.25,2.39,2.39,0,0,1-2-1.25A1.87,1.87,0,0,0,15.05,89h-.19a1.92,1.92,0,0,0-1.39.59,2.22,2.22,0,0,1-1.61.76c-1.39,0-2.56-1.5-2.56-3.27,0-.14,0-.27,0-.48a9,9,0,0,1,9.14-8.23,9,9,0,0,1,9.15,8.23.25.25,0,0,0,0,.08c0,.13,0,.26,0,.4C27.65,88.88,26.48,90.38,25.09,90.38ZM50,91.17a67.57,67.57,0,0,1-18.67-2.55,8.31,8.31,0,0,0,.15-1.51c0-.25,0-.5,0-.74a12.8,12.8,0,0,0-13-11.8,13.35,13.35,0,0,0-6.62,1.76A13.57,13.57,0,0,1,12.22,60a1.91,1.91,0,0,0,.36-1c.94-21.33,17.37-38,37.42-38S86.48,37.64,87.42,59a1.91,1.91,0,0,0,.36,1,13.52,13.52,0,0,1,.35,16.32,13.27,13.27,0,0,0-6.6-1.75,12.8,12.8,0,0,0-13,11.76c0,.26,0,.52,0,.78a8.31,8.31,0,0,0,.15,1.51A67.57,67.57,0,0,1,50,91.17Zm38.14-.79a2.22,2.22,0,0,1-1.61-.76A1.9,1.9,0,0,0,85,89a1.87,1.87,0,0,0-1.43.88,2.39,2.39,0,0,1-2,1.25,2.41,2.41,0,0,1-2-1.24A1.86,1.86,0,0,0,78.1,89h-.19a1.92,1.92,0,0,0-1.39.59,2.22,2.22,0,0,1-1.61.76c-1.39,0-2.56-1.5-2.56-3.27,0-.14,0-.27,0-.48a9.2,9.2,0,0,1,18.29,0,.25.25,0,0,0,0,.08c0,.13,0,.26,0,.4C90.7,88.88,89.53,90.38,88.14,90.38Z"/><text x="0" y="115" fill="#000000" font-size="5px" font-weight="bold" font-family="'Helvetica Neue', Helvetica, Arial-Unicode, Arial, Sans-serif">Created by Kim Sun Young</text><text x="0" y="120" fill="#000000" font-size="5px" font-weight="bold" font-family="'Helvetica Neue', Helvetica, Arial-Unicode, Arial, Sans-serif">from the Noun Project</text></svg>