<svg xmlns="http://www.w3.org/2000/svg" viewBox="0 0 64 80" x="0px" y="0px"><g data-name="Layer 19"><path d="M56.4141,32l2.2929-2.293a1,1,0,0,0-.0674-1.4756l-.18-.15A28.8714,28.8714,0,0,0,47.6443,22.43,19.8765,19.8765,0,0,0,32,15a1,1,0,0,0-.874.5146l-5,9a.9873.9873,0,0,0-.1187.4,28.9373,28.9373,0,0,0-4.5483,3.06l-3.3154,2.73L6.6357,21.2285A1,1,0,0,0,5,22V42a1,1,0,0,0,1.6357.7715l11.5079-9.4756,3.3154,2.7295a28.9417,28.9417,0,0,0,4.5484,3.06.9857.9857,0,0,0,.1186.4l5,9A1,1,0,0,0,32,49a19.8766,19.8766,0,0,0,15.6448-7.43A28.8611,28.8611,0,0,0,58.459,35.9189l.1806-.15a1,1,0,0,0,.0674-1.4756ZM7,39.8809V24.1191L16.57,32Zm35.1463.6466c-5.1746-7.3279-1.6575-14.41.0464-17.051a27.0578,27.0578,0,0,1,3.3957.5136,16.6608,16.6608,0,0,0-.1041,16.0393A27.0893,27.0893,0,0,1,42.1463,40.5275Zm-6.134-.196c-4.8814-7.1331-1.506-14.1374.0592-16.6721a27.1132,27.1132,0,0,1,3.86-.281c-1.7613,3.1746-4.4731,10.076-.1138,17.2454A27.0979,27.0979,0,0,1,36.0123,40.3315ZM28.7985,38.248a14.4744,14.4744,0,0,1,.1963-12.5766,26.8881,26.8881,0,0,1,4.5181-1.5249,16.7016,16.7016,0,0,0-.1549,15.6717A26.8759,26.8759,0,0,1,28.7985,38.248Zm3.785-21.2392a18.1283,18.1283,0,0,1,11.63,4.7c-.768-.1152-1.5382-.2024-2.3117-.2558-.0209-.0046-.0418,0-.0628-.0029a29.125,29.125,0,0,0-6.4653.28,1.0116,1.0116,0,0,0-.1169.0146,28.951,28.951,0,0,0-6.2945,1.7824ZM19.7163,32l3.0142-2.4824a26.9763,26.9763,0,0,1,3.5841-2.4821,16.0894,16.0894,0,0,0-.21,9.7976,26.9584,26.9584,0,0,1-3.3742-2.3507Zm9.2451,8.4719a28.952,28.952,0,0,0,6.4753,1.805l.0145.0034.0057-.0009a29.123,29.123,0,0,0,6.1292.2812c.0291.0025.0555.02.0848.02a1.0022,1.0022,0,0,0,.2034-.0325q1.1805-.08,2.3523-.2587a18.0782,18.0782,0,0,1-11.6431,4.7023Zm18.5467-.9537c-3.7287-6.1923-1.4954-12.1486.0728-15.0166a26.8449,26.8449,0,0,1,8.9279,4.5755L54.293,31.293a.9994.9994,0,0,0,0,1.414l2.2158,2.2159A26.8485,26.8485,0,0,1,47.5081,39.5182Z"/></g><text x="0" y="79" fill="#000000" font-size="5px" font-weight="bold" font-family="'Helvetica Neue', Helvetica, Arial-Unicode, Arial, Sans-serif">Created by Yosua Bungaran</text><text x="0" y="84" fill="#000000" font-size="5px" font-weight="bold" font-family="'Helvetica Neue', Helvetica, Arial-Unicode, Arial, Sans-serif">from the Noun Project</text></svg>