<svg xmlns="http://www.w3.org/2000/svg" xmlns:xlink="http://www.w3.org/1999/xlink" version="1.1" x="0px" y="0px" viewBox="0 0 52 65" style="enable-background:new 0 0 52 52;" xml:space="preserve"><style type="text/css">
	.st0{fill:none;stroke:#000000;stroke-width:2;stroke-linecap:round;stroke-linejoin:round;stroke-miterlimit:10;}
</style><g><g><g><path d="M26.0244579,51c-0.4472656,0-0.8955078-0.0117188-1.3457031-0.0351563     C11.9473104,50.2998047,1.782271,39.7734375,1.5361773,27.0014648C1.4531695,22.4047852,2.6650834,17.8867188,5.04106,13.9350586     c0.1699219-0.2807617,0.359375-0.5532227,0.5644531-0.8164063C3.6865678,9.8588867,2.6758256,6.03125,2.6758256,2     c0-0.5522461,0.4472656-1,1-1c3.8037109,0,7.507813,1.5844727,10.4296875,4.4619141     c2.9140615,2.8696289,6.7988272,4.449707,10.9384756,4.449707h1.9150391c4.1396484,0,8.024416-1.5805664,10.939455-4.449707     C40.8184052,2.5844727,44.5225067,1,48.3271942,1c0.5527344,0,1,0.4477539,1,1     c0,4.0253906-1.0078125,7.8540039-2.9208984,11.1210938c0.1728516,0.2260742,0.3300781,0.4575195,0.4746094,0.6982422     c2.34375,3.8046875,3.5869141,8.2055664,3.5869141,12.7163086c0,6.7827148-2.7109375,13.0883789-7.6318359,17.7563477     C38.245163,48.6455078,32.3184052,51,26.0244579,51z M4.7002397,3.0449219     c0.1689453,3.5249023,1.1904297,6.8354492,2.9804688,9.6318359c0.2470703,0.3852539,0.2011719,0.8891602-0.1123047,1.2231445     c-0.3144531,0.3349609-0.5878906,0.6943359-0.8144531,1.0683594c-2.1806641,3.6269531-3.2939453,7.7763672-3.2177734,11.9960938     c0.2255859,11.7270508,9.5585938,21.3920898,21.2470703,22.0024414c6.25,0.3378906,12.1621113-1.8457031,16.6757832-6.1259766     c4.5195313-4.2861328,7.0087891-10.0771484,7.0087891-16.3051758c0-4.1396484-1.1396484-8.1782227-3.296875-11.6787109     c-0.2041016-0.3422852-0.4394531-0.6523438-0.7255859-0.9594727c-0.3105469-0.3334961-0.3564453-0.8339844-0.1123047-1.2182617     c1.7832031-2.8032227,2.8007813-6.1147461,2.9697266-9.6342773c-2.9150391,0.2563477-5.7226563,1.5976563-8.0009766,3.8417969     c-3.2919922,3.2402344-7.6748066,5.0249023-12.3427753,5.0249023h-1.9150391     c-4.6679688,0-9.0507803-1.784668-12.3417959-5.0249023C10.4238729,4.6425781,7.6152787,3.3012695,4.7002397,3.0449219z"/></g></g><g><g><path d="M29.0156689,40.3710938c-1.1992188,0-2.2773438-0.5283203-3.0136719-1.3652344     c-0.7363281,0.8369141-1.8144531,1.3652344-3.0136719,1.3652344c-2.2128906,0-4.0136719-1.8007813-4.0136719-4.0136719     c0-0.5527344,0.4472656-1,1-1s1,0.4472656,1,1c0,1.1103516,0.9033203,2.0136719,2.0136719,2.0136719     s2.0136719-0.9033203,2.0136719-2.0136719c0-0.5527344,0.4472656-1,1-1s1,0.4472656,1,1     c0,1.1103516,0.9033203,2.0136719,2.0136719,2.0136719c1.109375,0,2.0126953-0.9033203,2.0126953-2.0136719     c0-0.5527344,0.4472656-1,1.0000019-1c0.5527344,0,1,0.4472656,1,1     C33.0283661,38.5703125,31.2285595,40.3710938,29.0156689,40.3710938z"/></g><g><path d="M26.001997,37.3574219c-0.5527344,0-1-0.4472656-1-1v-2.4560547c0-0.5527344,0.4472656-1,1-1s1,0.4472656,1,1v2.4560547     C27.001997,36.9101563,26.5547314,37.3574219,26.001997,37.3574219z"/></g></g><g><g><path d="M34.6943817,25.7753906c-2.3798828,0-4.3154316-1.9355469-4.3154316-4.3149414s1.9355488-4.3154297,4.3154316-4.3154297     s4.3154297,1.9360352,4.3154297,4.3154297S37.0742645,25.7753906,34.6943817,25.7753906z M34.6943817,19.1450195     c-1.2763672,0-2.3154297,1.0385742-2.3154297,2.3154297c0,1.2763672,1.0390625,2.3149414,2.3154297,2.3149414     s2.3154297-1.0385742,2.3154297-2.3149414C37.0098114,20.1835938,35.9707489,19.1450195,34.6943817,19.1450195z"/></g><g><path d="M17.3086376,25.7753906c-2.3798819,0-4.3154287-1.9355469-4.3154287-4.3149414s1.9355469-4.3154297,4.3154287-4.3154297     s4.3154297,1.9360352,4.3154297,4.3154297S19.6885204,25.7753906,17.3086376,25.7753906z M17.3086376,19.1450195     c-1.2763672,0-2.3154287,1.0385742-2.3154287,2.3154297c0,1.2763672,1.0390615,2.3149414,2.3154287,2.3149414     s2.3154297-1.0385742,2.3154297-2.3149414C19.6240673,20.1835938,18.5850048,19.1450195,17.3086376,19.1450195z"/></g></g></g><text x="0" y="67" fill="#000000" font-size="5px" font-weight="bold" font-family="'Helvetica Neue', Helvetica, Arial-Unicode, Arial, Sans-serif">Created by DinosoftLabs</text><text x="0" y="72" fill="#000000" font-size="5px" font-weight="bold" font-family="'Helvetica Neue', Helvetica, Arial-Unicode, Arial, Sans-serif">from the Noun Project</text></svg>